<svg xmlns="http://www.w3.org/2000/svg" viewBox="0 0 16 16">
  <path d="M1.5 2C0.675781 2 0 2.675781 0 3.5L0 11.5C0 12.324219 0.675781 13 1.5 13L5.671875 13C6.089844 13 6.484375 13.144531 6.703125 13.40625C6.710938 13.414063 6.957031 13.773438 6.957031 13.773438L7.105469 14L7.894531 14L8.042969 13.773438C8.042969 13.773438 8.289063 13.414063 8.296875 13.40625C8.515625 13.144531 8.910156 13 9.328125 13L13.5 13C14.324219 13 15 12.324219 15 11.5L15 3.5C15 2.675781 14.324219 2 13.5 2L9.328125 2C8.683594 2 7.992188 2.210938 7.53125 2.765625C7.515625 2.78125 7.515625 2.789063 7.5 2.804688C7.484375 2.789063 7.484375 2.78125 7.46875 2.765625C7.007813 2.214844 6.316406 2 5.671875 2 Z M 1.5 3L5.671875 3C6.089844 3 6.484375 3.144531 6.703125 3.40625C6.710938 3.414063 6.957031 3.773438 6.957031 3.773438L7.105469 4L7.894531 4L8.042969 3.773438C8.042969 3.773438 8.289063 3.414063 8.296875 3.40625C8.515625 3.144531 8.910156 3 9.328125 3L13.5 3C13.78125 3 14 3.21875 14 3.5L14 11.5C14 11.78125 13.78125 12 13.5 12L9.328125 12C8.683594 12 7.992188 12.214844 7.53125 12.765625C7.515625 12.78125 7.515625 12.789063 7.5 12.808594C7.484375 12.789063 7.484375 12.78125 7.46875 12.765625C7.007813 12.210938 6.316406 12 5.671875 12L1.5 12C1.21875 12 1 11.78125 1 11.5L1 3.5C1 3.21875 1.21875 3 1.5 3 Z M 2 5L2 6L4 6L4 5 Z M 5 5L5 6L6 6L6 5 Z M 9 5L9 6L11 6L11 5 Z M 12 5L12 6L13 6L13 5 Z M 2 7L2 8L4 8L4 7 Z M 9 7L9 8L11 8L11 7 Z M 2 9L2 10L4 10L4 9 Z M 5 9L5 10L6 10L6 9Z" fill="#0c0c0c" />
</svg>