<svg xmlns="http://www.w3.org/2000/svg" viewBox="0 0 16 16">
  <path d="M3.5 2C2.675781 2 2 2.675781 2 3.5C2 4.324219 2.675781 5 3.5 5C4.324219 5 5 4.324219 5 3.5C5 2.675781 4.324219 2 3.5 2 Z M 3.5 5L2.5 5C1.675781 5 1 5.675781 1 6.5L1 10L2 10L2 6.5C2 6.21875 2.21875 6 2.5 6L4.5 6C4.734375 6 4.757813 5.960938 4.90625 6.136719L5.796875 7.375C6.078125 7.769531 6.53125 8 7.015625 8L9 8L9 7L7.015625 7C6.851563 7 6.703125 6.921875 6.609375 6.789063L5.6875 5.507813L5.671875 5.496094C5.296875 5.042969 4.734375 5 4.5 5 Z M 6 2L6 3L12.5 3C12.78125 3 13 3.21875 13 3.5L13 8.5C13 8.78125 12.78125 9 12.5 9L6 9L6 10L12.5 10C13.324219 10 14 9.324219 14 8.5L14 3.5C14 2.675781 13.324219 2 12.5 2 Z M 3.5 3C3.78125 3 4 3.21875 4 3.5C4 3.78125 3.78125 4 3.5 4C3.21875 4 3 3.78125 3 3.5C3 3.21875 3.21875 3 3.5 3 Z M 10 5L10 6L12 6L12 5 Z M 10 7L10 8L12 8L12 7 Z M 4 8L4 10L5 10L5 8 Z M 3.5 11C2.675781 11 2 11.675781 2 12.5C2 13.324219 2.675781 14 3.5 14C4.324219 14 5 13.324219 5 12.5C5 11.675781 4.324219 11 3.5 11 Z M 5 12.5C5 13.324219 5.675781 14 6.5 14C7.324219 14 8 13.324219 8 12.5C8 11.675781 7.324219 11 6.5 11C5.675781 11 5 11.675781 5 12.5 Z M 8 12.5C8 13.324219 8.675781 14 9.5 14C10.324219 14 11 13.324219 11 12.5C11 11.675781 10.324219 11 9.5 11C8.675781 11 8 11.675781 8 12.5 Z M 11 12.5C11 13.324219 11.675781 14 12.5 14C13.324219 14 14 13.324219 14 12.5C14 11.675781 13.324219 11 12.5 11C11.675781 11 11 11.675781 11 12.5 Z M 3.5 12C3.78125 12 4 12.21875 4 12.5C4 12.78125 3.78125 13 3.5 13C3.21875 13 3 12.78125 3 12.5C3 12.21875 3.21875 12 3.5 12 Z M 6.5 12C6.78125 12 7 12.21875 7 12.5C7 12.78125 6.78125 13 6.5 13C6.21875 13 6 12.78125 6 12.5C6 12.21875 6.21875 12 6.5 12 Z M 9.5 12C9.78125 12 10 12.21875 10 12.5C10 12.78125 9.78125 13 9.5 13C9.21875 13 9 12.78125 9 12.5C9 12.21875 9.21875 12 9.5 12 Z M 12.5 12C12.78125 12 13 12.21875 13 12.5C13 12.78125 12.78125 13 12.5 13C12.21875 13 12 12.78125 12 12.5C12 12.21875 12.21875 12 12.5 12Z" fill="#0c0c0c" />
</svg>