<svg xmlns="http://www.w3.org/2000/svg" viewBox="0 0 16 16">
  <path d="M7 0C6.453125 0 6 0.453125 6 1L3.5 1C2.675781 1 2 1.675781 2 2.5L2 12.5C2 13.324219 2.675781 14 3.5 14L11.5 14C12.324219 14 13 13.324219 13 12.5L13 2.5C13 1.675781 12.324219 1 11.5 1L9 1C9 0.453125 8.546875 0 8 0 Z M 7 1L8 1L8 2L7 2 Z M 3.5 2L6 2L6 3L9 3L9 2L11.5 2C11.78125 2 12 2.21875 12 2.5L12 12.5C12 12.78125 11.78125 13 11.5 13L3.5 13C3.21875 13 3 12.78125 3 12.5L3 2.5C3 2.21875 3.21875 2 3.5 2 Z M 9.398438 6.273438L7 8.667969L5.601563 7.273438L4.898438 7.976563L7 10.082031L10.105469 6.976563Z" fill="#0c0c0c" />
</svg>