<svg xmlns="http://www.w3.org/2000/svg" viewBox="0 0 16 16">
  <path d="M3.5 1C2.1250151 1 1 2.1250151 1 3.5L1 11.5C1 12.874985 2.1250151 14 3.5 14L11.5 14C12.874985 14 14 12.874985 14 11.5L14 3.5C14 2.1250151 12.874985 1 11.5 1L3.5 1 z M 3.5 2L11.5 2C12.335015 2 13 2.6649849 13 3.5L13 11.5C13 12.335015 12.335015 13 11.5 13L9.9042969 13L9.9042969 8.9667969L11.300781 8.9667969L11.509766 7.3574219L9.9042969 7.3574219L9.9042969 6.3320312C9.9042969 5.8660312 10.034031 5.5488281 10.707031 5.5488281L11.566406 5.5488281L11.566406 4.109375C11.417406 4.089375 10.907453 4.046875 10.314453 4.046875C9.0764531 4.046875 8.2304688 4.795875 8.2304688 6.171875L8.2304688 7.3574219L7 7.3535156L7 8.9628906L8.2304688 8.9667969L8.2304688 13L3.5 13C2.6649849 13 2 12.335015 2 11.5L2 3.5C2 2.6649849 2.6649849 2 3.5 2 z" fill="#3A349C" />
</svg>