<svg xmlns="http://www.w3.org/2000/svg" viewBox="0 0 24 24">
  <path d="M4.0117188 3C2.9117187 3 2.0097656 3.9 2.0097656 5L2.0019531 16.998047C2.0019531 18.103047 2.8969531 19 4.0019531 19L5.5 19C5.776 19 6 19.224 6 19.5L6 21.585938C6 22.476937 7.0770313 22.922969 7.7070312 22.292969L10.208984 19.791016C10.075984 19.215016 10 18.617 10 18C10 13.582 13.582 10 18 10C19.459 10 20.822 10.396125 22 11.078125L22 5C22 3.9 21.1 3 20 3L4.0117188 3 z M 18 12C14.698136 12 12 14.698136 12 18C12 21.301864 14.698136 24 18 24C21.301864 24 24 21.301864 24 18C24 16.733895 23.601138 15.558373 22.925781 14.587891 A 1.0001 1.0001 0 0 0 22.660156 14.232422C21.558107 12.873028 19.877252 12 18 12 z M 18 14C19.003867 14 19.905651 14.377038 20.605469 14.980469L18 17.585938L17.175781 16.761719 A 1.0001 1.0001 0 1 0 15.761719 18.175781L17.292969 19.707031 A 1.0001 1.0001 0 0 0 18.707031 19.707031L21.755859 16.658203C21.904886 17.0789 22 17.52606 22 18C22 20.220984 20.220984 22 18 22C15.779016 22 14 20.220984 14 18C14 15.779016 15.779016 14 18 14 z" fill="#2A2A2A" />
</svg>