<?xml version="1.0" encoding="UTF-8"?>
<svg xmlns="http://www.w3.org/2000/svg" xmlns:xlink="http://www.w3.org/1999/xlink" width="64pt" height="64pt" viewBox="0 0 64 64" version="1.1">
<g id="surface1">
<path style=" stroke:none;fill-rule:nonzero;fill:#3B3B3B;fill-opacity:1;" d="M 30 4 C 15.65625 4 4 15.65625 4 30 L 4 32 C 4 36.390625 7.609375 40 12 40 L 14 40 C 17.34375 40 20 42.65625 20 46 L 20 48 C 20 52.390625 23.609375 56 28 56 L 30 56 C 44.34375 56 56 44.34375 56 30 C 56 15.65625 44.34375 4 30 4 Z M 30 8 C 42.171875 8 52 17.828125 52 30 C 52 42.171875 42.171875 52 30 52 L 28 52 C 25.765625 52 24 50.234375 24 48 L 24 46 C 24 40.5 19.5 36 14 36 L 12 36 C 9.765625 36 8 34.234375 8 32 L 8 30 C 8 17.828125 17.828125 8 30 8 Z M 28 12 C 25.796875 12 24 13.796875 24 16 C 24 18.203125 25.796875 20 28 20 C 30.203125 20 32 18.203125 32 16 C 32 13.796875 30.203125 12 28 12 Z M 40 16 C 37.796875 16 36 17.796875 36 20 C 36 22.203125 37.796875 24 40 24 C 42.203125 24 44 22.203125 44 20 C 44 17.796875 42.203125 16 40 16 Z M 16 20 C 13.796875 20 12 21.796875 12 24 C 12 26.203125 13.796875 28 16 28 C 18.203125 28 20 26.203125 20 24 C 20 21.796875 18.203125 20 16 20 Z M 44 28 C 41.796875 28 40 29.796875 40 32 C 40 34.203125 41.796875 36 44 36 C 46.203125 36 48 34.203125 48 32 C 48 29.796875 46.203125 28 44 28 Z M 36 40 C 33.796875 40 32 41.796875 32 44 C 32 46.203125 33.796875 48 36 48 C 38.203125 48 40 46.203125 40 44 C 40 41.796875 38.203125 40 36 40 Z "/>
</g>
</svg>
