<svg xmlns="http://www.w3.org/2000/svg" viewBox="0 0 16 16">
  <path d="M4.773438 1C2.695313 1 1 2.695313 1 4.773438L1 10.230469C1 12.304688 2.695313 14 4.773438 14L10.230469 14C12.304688 14 14 12.304688 14 10.226563L14 4.773438C14 2.695313 12.304688 1 10.226563 1 Z M 4.773438 2L10.226563 2C11.765625 2 13 3.234375 13 4.773438L13 10.226563C13 11.765625 11.765625 13 10.230469 13L4.773438 13C3.234375 13 2 11.765625 2 10.230469L2 4.773438C2 3.234375 3.234375 2 4.773438 2 Z M 11.5 3C11.222656 3 11 3.222656 11 3.5C11 3.777344 11.222656 4 11.5 4C11.777344 4 12 3.777344 12 3.5C12 3.222656 11.777344 3 11.5 3 Z M 7.5 4C5.574219 4 4 5.574219 4 7.5C4 9.425781 5.574219 11 7.5 11C9.425781 11 11 9.425781 11 7.5C11 5.574219 9.425781 4 7.5 4 Z M 7.5 5C8.886719 5 10 6.113281 10 7.5C10 8.886719 8.886719 10 7.5 10C6.113281 10 5 8.886719 5 7.5C5 6.113281 6.113281 5 7.5 5Z" fill="#3A349C" />
</svg>