<svg xmlns="http://www.w3.org/2000/svg" viewBox="0 0 24 24">
  <path d="M5 3C3.9069372 3 3 3.9069372 3 5L3 19C3 20.093063 3.9069372 21 5 21L19 21C20.093063 21 21 20.093063 21 19L21 5C21 3.9069372 20.093063 3 19 3L5 3 z M 5 5L14 5L14 11L11 11L11 9.5996094C11 9.2756094 10.805859 8.9843281 10.505859 8.8613281C10.205859 8.7373281 9.8637656 8.8061563 9.6347656 9.0351562L7.234375 11.435547C6.922375 11.747547 6.922375 12.254406 7.234375 12.566406L9.6347656 14.966797C9.7887656 15.119797 9.9912187 15.199219 10.199219 15.199219C10.302219 15.199219 10.406859 15.179672 10.505859 15.138672C10.804859 15.014672 11 14.723391 11 14.400391L11 13L14 13L14 19L5 19L5 5 z" fill="#2A2A2A" />
</svg>