<svg xmlns="http://www.w3.org/2000/svg" viewBox="0 0 16 16">
  <path d="M2.5 2C1.6773727 2 1 2.6773727 1 3.5L1 8.5C1 9.3226273 1.6773727 10 2.5 10L3.9960938 10L3.9960938 12L6.6621094 10L9.5 10C10.322627 10 11 9.3226273 11 8.5L11 3.5C11 2.6773727 10.322627 2 9.5 2L2.5 2 z M 2.5 3L9.5 3C9.7793727 3 10 3.2206273 10 3.5L10 8.5C10 8.7793727 9.7793727 9 9.5 9L6.3300781 9L4.9960938 10L4.9960938 9L2.5 9C2.2206273 9 2 8.7793727 2 8.5L2 3.5C2 3.2206273 2.2206273 3 2.5 3 z M 3 4L3 5L9 5L9 4L3 4 z M 12 5L12 6L13.5 6C13.78 6 14 6.22 14 6.5L14 11.5C14 11.78 13.78 12 13.5 12L11 12L11 13L9.6699219 12L6.5 12C6.29 12 6.1207813 11.880937 6.0507812 11.710938L5.25 12.320312C5.51 12.730313 5.97 13 6.5 13L9.3398438 13L12 15L12 13L13.5 13C14.33 13 15 12.33 15 11.5L15 6.5C15 5.67 14.33 5 13.5 5L12 5 z M 3 6L3 7L7 7L7 6L3 6 z" fill="#0c0c0c" />
</svg>