<svg xmlns="http://www.w3.org/2000/svg" viewBox="0 0 16 16">
  <path d="M8 3C7.195313 3 6.488281 3.390625 6.007813 3.988281L6.003906 3.992188L5.25 5L2.5 5C1.675781 5 1 5.675781 1 6.5L1 11.5C1 12.324219 1.675781 13 2.5 13L10.5 13C11.324219 13 12 12.324219 12 11.5L12 11.207031L13.792969 13L15 13L15 5L13.792969 5L12 6.792969L12 3 Z M 13 3L13 4L15 4L15 3 Z M 8 4L11 4L11 5L6.5 5L6.789063 4.613281C7.113281 4.210938 7.503906 4 8 4 Z M 2.5 6L10.5 6C10.78125 6 11 6.21875 11 6.5L11 11.5C11 11.78125 10.78125 12 10.5 12L2.5 12C2.21875 12 2 11.78125 2 11.5L2 6.5C2 6.21875 2.21875 6 2.5 6 Z M 14 6.207031L14 11.792969L12 9.792969L12 8.207031 Z M 3 7L3 8L5 8L5 7Z" fill="#0c0c0c" />
</svg>