<svg xmlns="http://www.w3.org/2000/svg" viewBox="0 0 16 16">
  <path d="M15 3.296875C14.476563 3.523438 13.949219 3.691406 13.367188 3.746094C13.949219 3.410156 14.417969 2.84375 14.648438 2.226563C14.066406 2.5625 13.484375 2.789063 12.84375 2.902344C12.257813 2.339844 11.5 2 10.683594 2C9.109375 2 7.824219 3.242188 7.824219 4.765625C7.824219 4.988281 7.824219 5.214844 7.882813 5.386719C4.875 5.386719 2.8125 3.691406 1.414063 2C1.121094 2.394531 1.003906 2.902344 1.003906 3.410156C1.003906 4.367188 1.53125 5.214844 2.289063 5.722656C1.820313 5.667969 1.355469 5.554688 1.003906 5.386719C1.003906 5.386719 1.003906 5.386719 1.003906 5.441406C1.003906 6.796875 1.996094 7.921875 3.28125 8.148438C3.046875 8.203125 2.8125 8.261719 2.519531 8.261719C2.347656 8.261719 2.171875 8.261719 1.996094 8.207031C2.347656 9.335938 3.976563 10.632813 5.257813 10.632813C4.265625 11.363281 3.34375 12 1.5 12C1.265625 12 1.453125 12 1 12C2.28125 12.789063 3.800781 13 5.375 13C10.683594 13 13.542969 8.769531 13.542969 5.101563C13.542969 4.988281 13.542969 4.878906 13.542969 4.765625C14.125 4.367188 14.59375 3.863281 15 3.296875" fill="#3A349C" />
</svg>