<?xml version="1.0" encoding="UTF-8"?>
<svg xmlns="http://www.w3.org/2000/svg" xmlns:xlink="http://www.w3.org/1999/xlink" width="64pt" height="64pt" viewBox="0 0 64 64" version="1.1">
<g id="surface1">
<path style=" stroke:none;fill-rule:nonzero;fill:#3B3B3B;fill-opacity:1;" d="M 32 8 C 24.671875 8 18.296875 13.09375 16.53125 20.09375 C 12.21875 20.734375 8.796875 24.171875 8.125 28.640625 C 3.34375 30.265625 0 34.828125 0 40 C 0 46.609375 5.390625 52 12 52 L 24 52 L 24 48 L 12 48 C 7.59375 48 4 44.40625 4 40 C 4 36.203125 6.703125 32.90625 10.40625 32.15625 L 12.046875 31.6875 L 12 30 C 12 26.6875 14.6875 24 17.796875 23.984375 L 18.203125 24.03125 L 19.9375 24.03125 L 20.1875 22.296875 C 21.015625 16.421875 26.09375 12 32 12 C 36.828125 12 41.171875 14.875 43.0625 19.3125 L 43.765625 21.03125 L 45.515625 20.4375 C 46.421875 20.140625 47.234375 20 48 20 C 52.40625 20 56 23.59375 56 28 C 56 28.9375 55.8125 29.890625 55.4375 30.84375 L 54.875 32.375 L 56.25 33.25 C 58.59375 34.734375 60 37.25 60 40 C 60 44.40625 56.40625 48 52 48 L 36 48 L 36 52 L 52 52 C 58.609375 52 64 46.609375 64 40 C 64 36.40625 62.40625 33.046875 59.65625 30.78125 C 59.890625 29.859375 60 28.921875 60 28 C 60 20.71875 53.5625 14.78125 45.96875 16.1875 C 43.15625 11.171875 37.859375 8 32 8 Z M 30 32 L 20 44 L 28 44 L 28 60 L 32 60 L 32 44 L 40 44 Z "/>
</g>
</svg>
