<?xml version="1.0" encoding="UTF-8"?>
<svg xmlns="http://www.w3.org/2000/svg" xmlns:xlink="http://www.w3.org/1999/xlink" width="64pt" height="64pt" viewBox="0 0 64 64" version="1.1">
<g id="surface1">
<path style=" stroke:none;fill-rule:nonzero;fill:#171717;fill-opacity:1;" d="M 41.109375 4.0625 L 16.09375 28.5625 C 15.859375 28.796875 15.6875 29.09375 15.59375 29.40625 L 8.09375 53.40625 C 7.875 54.125 8.078125 54.90625 8.609375 55.421875 C 9.140625 55.953125 9.9375 56.125 10.640625 55.890625 L 34.140625 47.890625 C 34.421875 47.796875 34.6875 47.640625 34.90625 47.4375 L 35.84375 46.5 L 36 46.5 C 36 46.453125 36 46.40625 36 46.359375 L 59.890625 22.9375 L 57.109375 20.0625 L 35.5 41.234375 C 34.703125 37.328125 33.03125 34.90625 31.15625 33.5625 C 29.265625 32.203125 28.15625 32.4375 27.21875 32.4375 C 26.921875 31.96875 26.65625 31.359375 25.5 30.4375 C 24.59375 29.71875 23.34375 29.046875 21.8125 28.578125 L 43.890625 6.9375 Z M 18.9375 32.078125 C 20.90625 32.25 22.1875 32.90625 23 33.5625 C 23.9375 34.3125 24.21875 34.890625 24.21875 34.890625 C 24.59375 35.65625 25.40625 36.09375 26.25 35.984375 C 26.25 35.984375 27.4375 35.8125 28.84375 36.8125 C 30.0625 37.6875 31.484375 39.75 31.84375 44.4375 L 18 49.171875 L 14.65625 45.8125 Z "/>
</g>
</svg>
