<?xml version="1.0" encoding="UTF-8"?>
<svg xmlns="http://www.w3.org/2000/svg" xmlns:xlink="http://www.w3.org/1999/xlink" width="64pt" height="64pt" viewBox="0 0 64 64" version="1.1">
<g id="surface1">
<path style=" stroke:none;fill-rule:nonzero;fill:#171717;fill-opacity:1;" d="M 8.28125 4 C 5.9375 4 4 5.9375 4 8.28125 L 4 35.71875 C 4 38.0625 5.9375 40 8.28125 40 L 24 40 L 24 52 C 24 54.203125 25.796875 56 28 56 L 52 56 C 54.203125 56 56 54.203125 56 52 L 56 28 C 56 25.796875 54.203125 24 52 24 L 40 24 L 40 8.28125 C 40 5.9375 38.0625 4 35.71875 4 Z M 8.28125 8 L 35.71875 8 C 35.890625 8 36 8.109375 36 8.28125 L 36 35.71875 C 36 35.890625 35.890625 36 35.71875 36 L 8.28125 36 C 8.109375 36 8 35.890625 8 35.71875 L 8 8.28125 C 8 8.109375 8.109375 8 8.28125 8 Z "/>
</g>
</svg>
