<?xml version="1.0" encoding="UTF-8"?>
<svg xmlns="http://www.w3.org/2000/svg" xmlns:xlink="http://www.w3.org/1999/xlink" width="64pt" height="64pt" viewBox="0 0 64 64" version="1.1">
<g id="surface1">
<path style=" stroke:none;fill-rule:nonzero;fill:#171717;fill-opacity:1;" d="M 18 8 C 14.703125 8 12 10.703125 12 14 L 12 50 C 12 53.296875 14.703125 56 18 56 L 46 56 C 49.296875 56 52 53.296875 52 50 L 52 21.171875 L 38.828125 8 Z M 18 12 L 36 12 L 36 24 L 48 24 L 48 50 C 48 51.125 47.125 52 46 52 L 18 52 C 16.875 52 16 51.125 16 50 L 16 14 C 16 12.875 16.875 12 18 12 Z M 40 14.828125 L 45.171875 20 L 40 20 Z "/>
</g>
</svg>
