<?xml version="1.0" encoding="UTF-8"?>
<svg xmlns="http://www.w3.org/2000/svg" xmlns:xlink="http://www.w3.org/1999/xlink" width="64pt" height="64pt" viewBox="0 0 64 64" version="1.1">
<g id="surface1">
<path style=" stroke:none;fill-rule:nonzero;fill:#171717;fill-opacity:1;" d="M 56 4 L 56 56 L 60 56 L 60 4 Z M 17.859375 4.03125 L 23.5 9.6875 L 9.59375 23.59375 L 8.171875 25 L 11 27.828125 L 12.40625 26.40625 L 26.34375 12.515625 L 32 18.171875 L 32 4.03125 Z M 48 12 L 48 56 L 52 56 L 52 12 Z M 40 20 L 40 56 L 44 56 L 44 20 Z M 32 28 L 32 56 L 36 56 L 36 28 Z M 24 36 L 24 56 L 28 56 L 28 36 Z M 16 44 L 16 56 L 20 56 L 20 44 Z M 8 52 L 8 56 L 12 56 L 12 52 Z "/>
</g>
</svg>
